<svg viewBox="0 0 904 720" fill="none" xmlns="http://www.w3.org/2000/svg">
<path d="M610.966 221.048C690.68 255.858 691.017 368.808 611.512 404.094L346.394 521.757C280.389 551.051 206.044 502.867 205.829 430.653L205.132 196.911C204.916 124.696 278.971 76.0692 345.151 104.969L610.966 221.048Z" fill="url(#paint0_linear_80414_1512)"/>
<g filter="url(#filter0_d_80414_1512)">
<path d="M694.907 314.706C774.621 349.516 774.958 462.466 695.453 497.751L430.335 615.414C364.329 644.709 289.985 596.524 289.77 524.31L289.072 290.568C288.857 218.354 362.912 169.727 429.091 198.627L694.907 314.706Z" fill="url(#paint1_linear_80414_1512)"/>
</g>
<defs>
<filter id="filter0_d_80414_1512" x="269.072" y="190.158" width="505.816" height="473.965" filterUnits="userSpaceOnUse" color-interpolation-filters="sRGB">
<feFlood flood-opacity="0" result="BackgroundImageFix"/>
<feColorMatrix in="SourceAlpha" type="matrix" values="0 0 0 0 0 0 0 0 0 0 0 0 0 0 0 0 0 0 127 0" result="hardAlpha"/>
<feOffset dy="20"/>
<feGaussianBlur stdDeviation="10"/>
<feComposite in2="hardAlpha" operator="out"/>
<feColorMatrix type="matrix" values="0 0 0 0 0 0 0 0 0 0 0 0 0 0 0 0 0 0 0.5 0"/>
<feBlend mode="normal" in2="BackgroundImageFix" result="effect1_dropShadow_80414_1512"/>
<feBlend mode="normal" in="SourceGraphic" in2="effect1_dropShadow_80414_1512" result="shape"/>
</filter>
<linearGradient id="paint0_linear_80414_1512" x1="819.128" y1="311.951" x2="0.930888" y2="314.392" gradientUnits="userSpaceOnUse">
<stop stop-color="#0D253F"/>
<stop offset="1" stop-color="#004FA4"/>
</linearGradient>
<linearGradient id="paint1_linear_80414_1512" x1="903.069" y1="405.608" x2="84.8716" y2="408.05" gradientUnits="userSpaceOnUse">
<stop stop-color="#01B4E4"/>
<stop offset="1" stop-color="#004FA4"/>
</linearGradient>
</defs>
</svg>
